<svg xmlns="http://www.w3.org/2000/svg" width="654" height="1024" viewBox="0 0 654 1024"><path fill="#cdd900" d="M179.948 965.692L5.712 368.714l18.744-5.483L188.92 926.8l390.958-430.77 14.455 13.134z"/><path fill="#cdd900" d="M651.41 326.2c0 179.198-145.267 324.467-324.465 324.467S2.48 505.4 2.48 326.2C2.48 147.005 147.746 1.736 326.944 1.736S651.41 147.003 651.41 326.2z"/><path fill="#ebf0b9" d="M624.557 326.2c0 164.368-133.245 297.613-297.612 297.613S29.333 490.568 29.333 326.2c0-164.366 133.245-297.61 297.612-297.61S624.557 161.833 624.557 326.2z"/><path fill="#cdd900" d="M453.802 84.152c-14.17-7.586-27.028-14.575-63.37-23.74-36.56-8.247-51.19-7.825-67.262-7.466-17.57.395-25.338 6.658-22.914 24.154l27.11 196.388c1.222 8.88 4.455 13.858 8.652 14.73 4.142 1.112 9.276-1.873 14.382-9.23l112.925-162.94c10.066-14.52 5.97-23.602-9.524-31.895zM245.494 65.343c-15.4 4.656-29.425 8.807-61.605 28.03-31.685 20.03-41.732 30.664-52.845 42.28-12.132 12.702-13.206 22.62.882 33.283L289.963 288.63c7.136 5.408 12.95 6.648 16.54 4.297 3.72-2.14 5.235-7.88 3.637-16.696L274.782 81.167c-3.15-17.385-12.462-20.92-29.287-15.824zM84.896 199.345c-7.595 14.18-14.575 27.028-23.74 63.378-8.247 36.56-7.834 51.19-7.466 67.263.395 17.56 6.65 25.33 24.144 22.914l196.397-27.11c8.873-1.232 13.86-4.455 14.732-8.66 1.11-4.143-1.874-9.277-9.24-14.374l-162.92-112.943c-14.52-10.056-23.622-5.96-31.906 9.533zM66.078 407.653c4.665 15.392 8.817 29.425 28.038 61.605 20.02 31.684 30.665 41.73 42.282 52.835 12.7 12.14 22.61 13.206 33.282-.872l119.702-158.035c5.41-7.136 6.65-12.95 4.298-16.55-2.14-3.71-7.88-5.234-16.696-3.636L81.92 378.356c-17.395 3.16-20.922 12.48-15.843 29.297zM200.09 568.26c14.17 7.586 27.027 14.575 63.368 23.74 36.56 8.247 51.19 7.834 67.272 7.466 17.56-.395 25.32-6.658 22.905-24.154l-27.102-196.388c-1.23-8.88-4.463-13.858-8.66-14.73-4.142-1.112-9.276 1.873-14.382 9.23l-112.933 162.93c-10.056 14.52-5.95 23.612 9.533 31.905zM408.397 587.07c15.392-4.657 29.416-8.808 61.596-28.03 31.684-20.03 41.74-30.665 52.844-42.292 12.14-12.7 13.206-22.62-.882-33.282L363.92 363.773c-7.137-5.41-12.95-6.65-16.54-4.298-3.71 2.14-5.236 7.88-3.638 16.696l35.367 195.075c3.15 17.385 12.47 20.92 29.286 15.824zM568.995 453.067c7.595-14.18 14.584-27.028 23.75-63.378 8.237-36.562 7.824-51.192 7.465-67.264-.395-17.56-6.658-25.33-24.163-22.914L379.66 326.614c-8.882 1.23-13.87 4.454-14.74 8.66-1.112 4.142 1.873 9.276 9.238 14.373l162.94 112.943c14.51 10.056 23.603 5.96 31.896-9.524zM587.804 244.75c-4.665-15.392-8.807-29.416-28.038-61.605-20.02-31.684-30.665-41.73-42.282-52.835-12.71-12.14-22.62-13.206-33.29.872L364.517 289.218c-5.418 7.145-6.65 12.95-4.307 16.55 2.14 3.71 7.88 5.234 16.697 3.636l195.074-35.358c17.386-3.15 20.913-12.48 15.825-29.297z"/><path fill="#ebf0b9" d="M197.122 869.757c-41.54-9.92-83.26 15.714-93.18 57.26l150.442 35.928c9.92-41.54-15.723-83.26-57.26-93.19z"/><path fill="#cdd900" d="M161.195 1020.207c41.54 9.928 83.26-15.714 93.18-57.252l-150.442-35.927c-9.92 41.54 15.714 83.26 57.26 93.18z"/></svg>