<svg xmlns="http://www.w3.org/2000/svg" width="255.118" height="49.323" viewBox="2.441 5.338 255.118 49.323"><title>page_sign</title><g fill="#FFF"><path d="M62.127 7.5s-8.503-.491-10.69 6.586c-.974 3.153-2.337 18.799 5.193 21.33 11.477 3.856 19.479 1.644 20.031-13.397.166-4.563.503-14.526-14.534-14.519zm.808 8.786h.639c.059 0 .507.023.507.58v2.193c0 .623.396.837.756.837s.763-.214.763-.837v-2.773h.681c.09 0 .409.033.466.384v4.203h-.687c-.393 0-.43-.307-.43-.397v-.027c-.303.317-.723.477-1.146.477-.46 0-.83-.15-1.084-.407-.369-.37-.465-.8-.465-1.302v-2.931zm-8.342-1.068c.004-.143.068-.617.704-.617l2.357.004c.023-.004.05-.004.073-.004h.764v.518c0 .503-.404.55-.404.55-.223.033-.454.026-.454.026h-1.819v1.54l1.413.003h.28c.024-.003.043-.003.063-.003h.81v.514c0 .253-.103.389-.207.463-.099.077-.203.087-.203.087-.219.036-.45.026-.45.026l-.293.004h-1.413v1.739c0 .38-.187.583-.374.687-.183.107-.37.117-.37.117h-.477v-5.654zm3.824 13.23c-.407.403-.98.584-1.617.584h-2.207v-5.537c.007-.16.084-.583.704-.583H56.8c.637 0 1.21.179 1.617.583.69.69.62 1.53.62 2.45.001.92.07 1.816-.62 2.503zm.574-7.576v-4.586h.616c.06 0 .46.02.503.497v.393c.217-.263.66-.494 1.153-.494 0 0 .887-.019.887-.396 0 0 .46 1.693-1.273 1.65-.353-.01-.744.263-.744.847v1.366c0 .339-.16.523-.316.617-.156.097-.316.107-.316.107h-.51zm4.46 8.16h-.66c-.451 0-.42-.413-.42-.413s-.007.016-.014.026c-.3.303-.587.43-1.1.43-.506 0-.88-.127-1.143-.394-.24-.25-.373-.609-.373-1.006 0-.713.489-1.3 1.533-1.3h1.057v-.223c0-.49-.241-.704-.834-.704-.166 0-.303.018-.42.054-.046.013-.086.033-.13.053-.373.133-.6-.023-.67-.087l-.024-.026-.33-.32c.437-.484.87-.62 1.618-.62 1.256 0 1.91.533 1.91 1.583v2.947zm2.979.723c-.096.25-.2.44-.337.577-.256.259-.592.343-.963.343h-.963v-.173c0-.031.006-.833.687-.833h.1c.313 0 .443-.078.553-.404l.194-.549-1.534-4.165h.633s.137 0 .293.064c.158.06.334.184.414.427l.77 2.28.733-2.28c0-.003.167-.491.67-.491h.667l-1.917 5.204zm2.79-9.553c0 .323-.143.49-.286.576-.143.087-.287.094-.287.094h-.573v-3.937s0-.65.573-.65h.573v3.917zm-.573-4.611c-.33 0-.594-.262-.594-.592 0-.327.264-.594.594-.594.326 0 .594.267.594.594 0 .331-.268.592-.594.592zm4.917 4.771c0 .443-.36.486-.36.486-.067.01-.137.017-.201.024h-.626c-.933 0-1.327-.66-1.327-1.313v-2.047h-.87v-.632c0-.444.363-.488.363-.488.198-.029.397-.022.404-.022h.103v-.778s.064-.529.604-.529h.54v1.273h1.14V16.91c0 .439-.361.543-.361.543-.196.03-.403.026-.406.026h-.373v2.01c0 .264.126.414.396.414h.324c.383-.014.5-.054.65-.174v.633zM19.858 5.583S5.275 6.97 3.405 19.569c-.834 5.617-1.623 26.9 11.496 32.343 19.376 8.043 36.402-5.021 33.453-25.442-1.124-7.771-2.939-24.824-28.496-20.887zm4.578 32.769c0 .457-.187.711-.374.847-.183.138-.37.157-.37.157-.409.063-.83.05-.83.05l-.006-.003h-.007v.003h-.203v.004h-3.261c1.057.948 3.364 2.014 5.051 2.562v1.721c-2.137-.586-4.671-1.543-6.174-3.075v3.536h-1.983V40.73c-1.253 1.282-3.227 2.08-5.16 2.666-.09.033-.183.051-.286.051-.474 0-.858-.381-.858-.854 0-.395.268-.723.624-.824 0 0-.007-.002-.013-.002 2.223-.67 3.65-1.442 4.639-2.356h-3.743l-.01.018v-.021c-.087-.002-.809-.01-1.36.5v-1.049c0-.096.023-.66.547-.891h.004c.036-.015.069-.027.102-.04.181-.057.404-.102.674-.102h.314v-.007h4.526v-1.075h-4.406c-.037-.004-.071-.004-.111-.004-.266.026-.787.116-1.196.391v-1.34c-.004-.013-.007-.019-.007-.019v-4.326s-.097-1.283 1.906-1.283h9.444s1.75-.033 2.004-.337v5.729c0 1.144-1.071 1.18-1.071 1.18s.007.005.017.009h-4.597v1.075h4.384v.005h.193c1-.03 1.26-.095 1.597-.371v.899zm.252-18.154v.004c0 .457-.186.707-.373.843s-.374.16-.374.16c-.406.06-.826.047-.826.047l-.007-.003h-.01v.003h-2.834l-.012-.003h-1.387c.903 2.296 2.88 4.213 5.596 5.09v2.049c-3.07-.87-5.4-2.583-6.643-5.146-.786 1.856-2.696 3.583-5.786 4.769.003-.002.003-.006.003-.006l-.003-.003c-.097.037-.204.056-.318.056-.523 0-.939-.42-.939-.943 0-.403.25-.743.603-.88 2.966-1.09 4.593-3.203 5.043-4.986h-4.293c-.09-.004-.81-.014-1.364.496v-1.44c.004-.093.03-.66.551-.89h.003c.033-.017.07-.027.103-.04.184-.057.404-.1.673-.1h2.204l-.04-.014h2.274v-2.616h-3.907s-.781-.063-1.371.48v-1.44c.004-.093.024-.663.55-.89l.004-.003c.033-.014.067-.027.104-.037.182-.06.399-.1.67-.1h10.083c1-.03 1.259-.097 1.593-.37v1.307c0 .457-.187.71-.37.846-.186.137-.374.157-.374.157-.406.064-.829.05-.829.05l-.014-.01v.01h-4.083v2.616h4.503c1-.026 1.257-.092 1.597-.366v1.303zm16.543 22.499c0 .285-.043.512-.12.688-.119.35-.38.51-.607.576-.286.104-.549.069-.549.069H28.728c-.203.011-.823.079-1.3.396V31.494c0-.223.083-1.278 1.286-1.278h10.467s2.05.059 2.05-.337v12.818zm0-22.499v.004c0 .457-.183.707-.37.843s-.369.16-.369.16c-.414.06-.834.047-.834.047l-.003-.003h-.01v.003h-2.837l-.01-.003h-1.386c.899 2.296 2.88 4.213 5.599 5.09v2.049c-3.076-.87-5.406-2.583-6.646-5.146-.787 1.856-2.694 3.583-5.787 4.769 0-.002.004-.006.004-.006l-.004-.003c-.1.037-.206.056-.317.056-.519 0-.94-.42-.94-.943 0-.403.254-.743.607-.88 2.963-1.09 4.593-3.203 5.043-4.986h-4.297c-.086-.004-.809-.014-1.359.496v-1.44c.003-.093.026-.66.543-.89h.007c.036-.017.07-.027.106-.04.18-.057.401-.1.67-.1h2.203l-.043-.014h2.277v-2.616h-3.907s-.783-.063-1.367.48v-1.44c0-.093.028-.663.544-.89l.003-.003c.037-.014.067-.027.107-.037.18-.06.403-.1.673-.1h10.08c.997-.03 1.26-.097 1.593-.37v1.307c0 .457-.182.71-.369.846-.187.137-.37.157-.37.157-.41.064-.834.05-.834.05l-.01-.01v.01h-4.087v2.616h4.504c1.003-.026 1.26-.092 1.593-.366v1.303z"/><path d="M18.262 34.201h3.65v.914h-3.65zM12.481 34.201h3.797v.914h-3.797zM12.481 31.789h3.797v.898h-3.797zM18.262 31.789h3.65v.898h-3.65zM29.012 42.346h10.543V31.822H29.012v10.524zm1.273-9.461s.286.194.72.293h6.563v.004c.003-.004.01-.004.01-.004.434-.099.721-.293.721-.293v1.547c-.164.246-.721.322-.721.322l-.01-.005v.005h-6.564s-.557-.076-.72-.322l.001-1.547zm-.243 6.961c1.753-.894 1.687-1.085 1.81-2.414h-1.81v-1.57h8.576v1.57h-2.05v1.743c0 .397.034.464.274.464h1.787v1.506h-2.094c-1.344 0-1.653-.479-1.653-1.97v-1.743h-1.38c-.203 2.166-.337 2.892-3.46 4.133v-1.719zM56.691 23.978h-.904v3.988h.904c.414 0 .687-.127.893-.377.22-.274.26-.714.26-1.644 0-.927-.04-1.313-.26-1.59-.206-.25-.479-.377-.893-.377zM60.817 27.648c0 .31.207.516.644.516.309 0 .51-.026.706-.216.124-.11.164-.289.164-.567v-.24h-.887c-.4 0-.627.19-.627.507zM94.588 19.862v.938h3.366v1.608h-3.171v1.454h3.171v1.679H92.96v1.497h11.825v-1.497h-5.091v-1.679h3.31v-1.454h-3.31V20.8h3.421v-.896c.417.239.877.489 1.336.741.208-.489.695-1.047 1.112-1.426-2.226-.979-4.146-2.21-5.801-3.987.084-.126.167-.252.251-.378l-1.476-.684c-1.39 2.168-3.921 3.986-6.412 5.021.417.392.905.952 1.127 1.385.46-.224.905-.461 1.336-.714zm4.229-3.441c1.071 1.16 2.184 2.097 3.408 2.909h-6.788c1.226-.81 2.379-1.805 3.38-2.909zM112.366 18.688l-1.279.573c.514.783 1.07 1.847 1.265 2.518l1.35-.629c-.209-.7-.807-1.692-1.336-2.462z"/><path d="M106.12 24.463l.348 1.581c1.197-.378 2.699-.853 4.131-1.315l.765 1.176c.863-.783 1.865-1.749 2.838-2.7v2.294c0 .209-.097.28-.306.28-.208.013-.862.013-1.53-.015.209.448.487 1.161.557 1.609 1.029 0 1.739-.07 2.212-.35.487-.266.653-.699.653-1.538v-2.224c.64 1.175 1.461 2.126 2.63 3.021.194-.448.639-.979 1.014-1.259-1.181-.839-2.002-1.734-2.6-2.938.695-.712 1.571-1.748 2.295-2.699l-1.433-.755c-.348.629-.891 1.399-1.405 2.07-.194-.628-.361-1.301-.501-2.07v-.559h3.408v-1.525h-1.195l.793-.769c-.363-.42-1.086-1.022-1.67-1.385l-.904.839c.5.378 1.099.895 1.46 1.315h-1.892V14.31h-1.586v2.238h-3.199v1.525h3.199v3.342c-1.154.964-2.393 1.944-3.297 2.615l-.152-.909-1.419.433v-2.923h1.196v-1.523h-1.196v-2.462h1.405v-1.553h-4.41v1.553h1.461v2.462h-1.392v1.523h1.392v3.371c-.626.182-1.183.335-1.67.461zM120.434 25.331v1.637h12.505v-1.637h-5.397v-2.812h4.16v-1.608h-4.16V18.45h4.688v-1.622h-4.688v-2.517h-1.739v2.517h-2.142c.236-.643.459-1.301.654-1.973l-1.711-.377c-.473 1.903-1.377 3.833-2.463 5.007.418.225 1.154.728 1.488.993.459-.543.891-1.258 1.294-2.027h2.88v2.461h-3.769v1.608h3.769v2.812h-5.369zM134.705 24.268h5.286v-6.419h-1.086c.391-.587.752-1.273 1.059-1.86l-.835-.658-.292.084h-1.781c.098-.321.195-.643.278-.951l-1.433-.196c-.293 1.301-.904 2.881-1.947 4.099.208.125.501.35.751.587v5.314zm4.007-1.258h-.85v-1.385h.85v1.385zm0-2.547h-.85v-1.355h.85v1.355zm-2.115-3.79h1.559c-.168.42-.361.839-.543 1.175h-1.6c.209-.39.403-.768.584-1.175zm-.655 2.435h.834v1.355h-.834v-1.355zm0 2.517h.834v1.385h-.834v-1.385zM144.526 27.415V24.24h2.545v-1.496h-2.545v-1.469h2.086v-1.398h-2.086V18.31h2.351v-1.426h-1.489c.348-.602.696-1.315 1.016-2l-1.445-.336c-.236.685-.641 1.636-1.016 2.336h-2.088l1.101-.476c-.153-.503-.528-1.272-.892-1.832l-1.152.434c.333.573.693 1.342.834 1.874h-1.21v1.426h2.42v1.567h-2.198v1.398h2.198v1.469h-2.657v1.496h2.657v3.175h1.57zM134.231 25.443l.235 1.511c1.586-.182 3.743-.42 5.788-.657l-.027-1.371c-2.197.196-4.479.405-5.996.517zM154 15.722h-1.518c-.654.407-1.363.672-2.393.868v1.273h1.864v6.546h-2.213v1.664h6.19v-1.664H154v-8.687zM164.85 25.484l-.082-1.426c-.877.139-1.781.294-2.658.447v-1.637h2.504v-1.44h-2.504v-1.245h-1.571v1.245h-2.531v1.44h2.531v1.903c-1.128.181-2.171.349-3.006.461l.362 1.539c1.89-.334 4.519-.811 6.955-1.287zM169.717 25.205V14.378h-1.611v10.813c0 .238-.084.321-.321.321-.236 0-.986 0-1.724-.028.222.448.486 1.162.556 1.595 1.085 0 1.878-.056 2.407-.308.527-.266.693-.685.693-1.566z"/><path d="M158.574 18.043c-.208.308-.43.531-.639.587.166.434.431 1.176.526 1.511.404-.167 1.002-.238 4.843-.56.125.252.235.49.319.7l1.252-.825c-.349-.826-1.211-2.07-1.933-2.979h1.961V15.05h-7.233v1.427h1.767c-.333.729-.708 1.356-.863 1.566zm2.658-1.564h1.668l-1.168.685c.266.35.543.741.807 1.147l-2.518.139c.432-.601.864-1.302 1.211-1.971zM165.447 15.526h1.529v8.448h-1.529zM174.211 17.148c.975 0 1.543.63 1.543 1.678 0 1.594-1.654 3.539-4.451 6.056v1.188h6.9v-1.734h-2.24c-.473 0-1.152.057-1.67.112 1.879-1.846 3.424-3.86 3.424-5.735 0-1.93-1.295-3.188-3.24-3.188-1.406 0-2.324.559-3.271 1.566l1.113 1.119c.515-.571 1.14-1.062 1.892-1.062zM182.404 22.239c.709 0 1.586-.433 2.113-1.133-.084 2.602-1.043 3.483-2.197 3.483-.612 0-1.252-.321-1.627-.728l-1.071 1.232c.61.629 1.544 1.175 2.823 1.175 2.045 0 3.951-1.693 3.951-5.61 0-3.595-1.754-5.133-3.701-5.133-1.768 0-3.24 1.329-3.24 3.455 0 2.197 1.238 3.259 2.949 3.259zm.319-5.159c.877 0 1.586.699 1.769 2.587-.5.797-1.142 1.104-1.696 1.104-.893 0-1.461-.573-1.461-1.79-.002-1.273.624-1.901 1.388-1.901zM196.647 14.394l-1.56.587c.724 1.497 1.752 3.05 2.798 4.35h-7.332c1.043-1.258 1.975-2.797 2.602-4.419l-1.78-.491c-.78 2.085-2.185 4.043-3.812 5.218.401.293 1.099.964 1.403 1.314.294-.238.571-.504.834-.797v.825h2.241c-.292 2.014-1.029 3.86-4.132 4.867.376.364.848 1.035 1.044 1.483 3.574-1.329 4.492-3.707 4.854-6.35h2.906c-.125 2.839-.263 4.028-.556 4.35-.153.139-.306.181-.558.181-.332 0-1.069 0-1.822-.069.293.475.503 1.175.529 1.678.834.028 1.612.028 2.114-.041.528-.057.904-.21 1.252-.659.487-.573.653-2.223.793-6.348v-.042c.265.278.528.545.779.796.306-.448.918-1.091 1.335-1.413-1.428-1.188-3.098-3.258-3.932-5.02zM205.146 24.702v-2.183h1.654v-1.482h-1.654v-1.371h1.434v-1.482h-3.659c.251-.336.487-.671.71-1.049h3.2V15.61h-2.408c.125-.307.251-.601.363-.895l-1.461-.448c-.404 1.231-1.154 2.406-1.962 3.175.236.392.625 1.273.75 1.622.169-.153.335-.321.502-.516v1.118h.945v1.371h-1.767v1.482h1.767v2.057c0 .741-.473 1.287-.807 1.511.277.251.695.839.834 1.175.278-.266.766-.546 3.479-1.889-.11-.35-.224-1.007-.25-1.454l-1.67.783zM211.448 14.253h-1.629v2.768h-2.684v6.659h1.502v-.854h1.182v4.49h1.629v-4.49h1.21v.741h1.586v-6.545h-2.796v-2.769zm-1.629 6.966h-1.182v-2.601h1.182v2.601zm2.839-2.601v2.601h-1.21v-2.601h1.21zM227.75 16.337l-1.377-.518c-.236.671-.697 1.58-1.085 2.182h-1.114l.821-.392c-.153-.433-.474-1.09-.749-1.636 1.277-.112 2.516-.294 3.49-.518l-.779-1.161c-1.74.434-4.702.644-7.164.686.14.322.306.825.334 1.161.362 0 .765 0 1.169-.014l-.932.461c.222.434.514.979.71 1.413h-1.351v2.266h.877c-.293.923-.709 1.804-1.252 2.476v-7.735h-3.617v11.189h1.252v-1.133h2.365v-1.51c.235.154.473.322.61.447.543-.601 1.058-1.398 1.448-2.321h.986c-.141.546-.319 1.049-.543 1.524-.223-.182-.443-.363-.652-.517l-.643.909c.225.196.487.42.726.643-.558.797-1.253 1.427-2.03 1.805.277.266.641.783.807 1.104 1.92-1.077 3.198-2.979 3.771-5.944v.657h1.891v1.693h-.807c.027-.448.055-.895.068-1.315h-1.152c-.041.825-.112 1.874-.224 2.574h2.114v2.391h1.279v-2.391h.932v-1.259h-.932v-1.693h.96v-1.286h-.96v-.294h1.195v-2.28h-1.518c.338-.502.715-1.089 1.076-1.664zm-9.681 7.273h-1.086v-1.497h1.086v1.497zm0-2.895h-1.086v-1.44h1.086v1.44zm0-2.84h-1.086v-1.413h1.086v1.413zm5.744-1.874l-.848.377c.236.504.515 1.147.666 1.623h-1.877l.654-.363c-.183-.393-.529-1.008-.835-1.526.724-.011 1.504-.053 2.24-.111zm2.921 3.26v.489h-1.016v.826h-1.893v.112l-.75-.224-.236.042h-.987c.084-.238.151-.489.209-.728l-.946-.181v-.336h5.619zM238.641 22.435c-.443-.81-1.391-2.111-2.07-3.077l-1.364.728c.668 1.021 1.56 2.391 1.976 3.203l1.458-.854z"/><path d="M240.868 14.324h-1.685V16.8h-4.117v1.65h4.117v6.602c0 .294-.11.391-.418.391-.291 0-1.32 0-2.295-.042.25.476.516 1.217.584 1.679 1.393.014 2.364-.028 2.979-.294.626-.266.835-.699.835-1.707V18.45h1.417V16.8h-1.417v-2.476zM229.766 25.834h1.561v-1.119h3.212v-9.399h-4.771v10.519h-.002zm1.559-9.036h1.669v2.434h-1.669v-2.434zm-.001 3.889h1.669v2.531h-1.669v-2.531zM251.174 25.414c-1.543 0-2.824-.097-3.783-.643-.318-.168-.568-.35-.793-.49v-4.993h-3.311v1.593h1.641v3.26c-.597.279-1.252.783-1.878 1.469l1.156 1.65c.485-.84 1.099-1.776 1.502-1.776.306 0 .793.447 1.433.796 1.029.574 2.198.742 3.979.742 1.403 0 3.698-.084 4.646-.154.028-.489.291-1.329.487-1.804-1.378.224-3.618.35-5.079.35zM246.736 17.134c-.307-.77-1.057-1.874-1.737-2.686l-1.42.713c.653.867 1.362 2.043 1.628 2.798l1.529-.825z"/><path d="M247.016 23.414c.375.308.875.938 1.084 1.343 1.769-.909 2.771-2.182 3.34-3.748 1.252 1.258 2.488 2.699 3.129 3.706l1.393-1.063c-.85-1.231-2.531-2.994-4.063-4.35.057-.294.098-.573.14-.881h3.784v-1.609h-3.633c.043-.811.07-1.664.084-2.545h-1.726c-.013.894-.028 1.748-.069 2.545h-3.172v1.609h3.033c-.306 2.195-1.085 3.902-3.324 4.993z"/><circle cx="144.821" cy="34.196" r=".788"/><path d="M112.638 36.364c-.652 0-1.235.304-1.528.653v-.521c-.056-.63-.586-.658-.66-.66h-.821v6.078h1.517v-2.771c0-.769.513-1.132.981-1.119 2.298.055 1.688-2.188 1.688-2.188 0 .502-1.177.528-1.177.528zM118.261 36.596l-.999 3.094-1.037-3.094-.001-.002c-.221-.658-.96-.662-.96-.662h-.86l2.076 5.646-.256.748c-.151.441-.327.547-.759.547h-.128c-.941 0-.933 1.131-.933 1.131v.234h1.307c.501 0 .957-.117 1.307-.467.185-.188.326-.443.454-.781l2.6-7.059h-.904c-.682.001-.905.659-.907.665zM144.062 36.764v5.213h.76l-.002-.002s.761-.027.761-.883V35.9h-.761c-.758-.002-.758.864-.758.864zM150.032 38.236l-.927-.09c-.408-.037-.609-.207-.609-.508 0-.378.277-.565.835-.565.287 0 .536.03.753.086l-.002-.002s.004.002.008.005c.041.01.082.023.121.035.215.049.664.082 1.094-.344h.002l.297-.299c-.49-.462-1.24-.69-2.248-.69-.635 0-1.16.159-1.581.476-.459.346-.688.813-.688 1.399 0 .987.571 1.536 1.717 1.649l.926.092c.414.037.621.217.621.541 0 .405-.347.608-1.039.608-.291 0-.551-.034-.783-.104-.045.017-.127-.008-.264-.092-.002 0-.004-.002-.006-.006-.061-.025-.115-.055-.17-.086-.289-.121-.5-.063-.64.027l-.668.668c.339.338.726.57 1.163.699.346.098.793.147 1.344.147.729 0 1.322-.157 1.771-.475.482-.341.726-.822.726-1.447-.002-1.034-.586-1.61-1.753-1.724zM107.875 36.666c-.467-.533-1.1-.801-1.898-.801-.776 0-1.393.26-1.853.777-.474.543-.712 1.285-.712 2.227 0 2.011.907 3.018 2.722 3.018.505 0 .935-.08 1.288-.238.309-.135.625-.364.95-.688l-.412-.402c-.282-.273-.756-.174-1.029-.082-.067.03-.133.059-.203.08-.003.002-.006.002-.006.002h.002c-.18.057-.375.086-.579.086-.397 0-.712-.121-.942-.361s-.345-.559-.345-.949h2.939c.092 0 .701-.025.745-.529v-.126c-.005-.059-.006-.102-.003-.132-.023-.771-.243-1.398-.664-1.882zm-3.017 1.66c.007-.239.053-.451.136-.631.18-.408.51-.61.983-.61s.801.202.982.61c.084.18.128.392.135.631h-2.236zM101.419 36.512l-.998 3.059-1.023-3.106c-.151-.461-.605-.522-.781-.53h-.941l2.17 5.887h.597c.116-.004.575-.053.779-.612l1.932-5.274h-.87c-.658-.004-.865.576-.865.576zM92.135 34.385v7.434h4.637c.195-.025.661-.141.657-.631-.002-.027.001-.054.004-.073v-.696h-3.728v-1.955h2.56s.615.005.615-.554v-.847h-3.175v-1.887h3.099s.629-.009.629-.609v-.791h-4.649c-.568-.001-.64.443-.649.609zM187.116 34.532c-.55-.548-1.329-.793-2.191-.793h-2.044c-.836 0-.943.573-.956.79v7.516h3c.862 0 1.642-.244 2.191-.793.933-.934.839-2.146.839-3.395s.094-2.39-.839-3.325zm-1.132 5.554c-.278.338-.651.514-1.211.514h-1.228v-5.412h1.228c.56 0 .933.174 1.211.513.305.373.35.897.35 2.157s-.045 1.855-.35 2.228zM171.145 35.969h-.903v3.676c0 .826-.536 1.107-1.017 1.107-.477 0-1.002-.281-1.002-1.107V36.74c0-.739-.59-.769-.668-.771h-.849v3.885c0 .664.127 1.236.619 1.728.338.338.827.536 1.433.536.563 0 1.121-.209 1.518-.629v.033c.004.119.056.525.57.525h.912V36.48c-.074-.464-.498-.507-.613-.511zM174.047 33.479c-.438 0-.791.354-.791.789 0 .436.354.787.791.787.434 0 .785-.353.785-.787 0-.436-.352-.789-.785-.789zM191.351 35.898c-1.014 0-1.598.186-2.192.838l.45.438.031.033c.096.084.4.301.908.118.057-.028.113-.053.176-.073l.006-.003h.002c.154-.048.334-.068.562-.068.806 0 1.131.291 1.131.957v.303h-1.435c-1.411 0-2.077.793-2.077 1.76 0 .538.176 1.027.502 1.365.362.36.862.537 1.551.537.701 0 1.086-.177 1.494-.584v.012c.013-.029.021-.047.021-.047s-.037.561.569.561h.894v-4.001c-.004-1.424-.89-2.146-2.593-2.146zm1.072 3.907c0 .375-.059.619-.223.771-.268.256-.535.292-.955.292-.596 0-.877-.279-.877-.701 0-.431.305-.688.854-.688h1.2l.001.326zM198.771 36.631l-.998 3.094-1.037-3.094v-.002c-.221-.658-.961-.662-.961-.662h-.859l2.076 5.646-.256.748c-.152.44-.327.547-.758.547h-.129c-.942 0-.935 1.131-.935 1.131v.232h1.308c.502 0 .957-.115 1.307-.465.188-.188.326-.443.455-.781l2.6-7.06h-.904c-.683.002-.908.662-.909.666zM173.287 36.834v5.213h.76l-.001-.002s.759-.027.759-.883V35.97h-.759c-.759 0-.759.864-.759.864zM179.271 40.764c-.36 0-.524-.197-.524-.547v-2.668h.494v-.002h.005l.001.002s.271.008.532-.031c0 0 .479-.137.479-.724v-.759h-1.511v-1.688h-.715c-.714 0-.802.707-.802.707v1.026h-.135v.002h-.005l-.006-.002s-.271-.008-.528.032c0 0-.479.056-.479.644l-.001.002v.836h1.151v2.714c0 .862.523 1.737 1.76 1.737h.83v-.005c.08-.005.173-.011.265-.024 0 0 .476-.058.476-.646l.002-.002v-.835c-.195.16-.354.209-.863.23h-.426v.001zM164.949 36.498c-.653 0-1.236.302-1.528.65v-.521c-.054-.629-.586-.658-.659-.659h-.82v6.078h.672v-.003s.845-.051.845-.957v-1.812c0-.771.513-1.133.979-1.12 2.301.055 1.689-2.188 1.689-2.188-.001.507-1.178.532-1.178.532zM160.166 33.744v-.004h-3.125c-.842 0-.926.627-.93.816v7.49h.637l-.002-.002s.986-.052.986-1.064v-2.305h1.867v-.001h.379v-.003h.008l.002.003s.307.009.603-.036c0 0 .54-.064.54-.728v-.682h-1.072c-.029 0-.056.002-.084.002h-.373v-.002H157.733v-2.041h2.408s.303.012.601-.033c0 0 .538-.063.538-.729v-.685h-1.016c-.032.002-.063.002-.098.004zM126.29 34.201c-.548-.549-1.328-.793-2.192-.793h-2.042c-.836 0-.944.574-.956.79v7.515h2.998c.864 0 1.644-.244 2.192-.791.933-.936.841-2.146.841-3.396-.001-1.249.092-2.391-.841-3.325zm-1.13 5.553c-.279.338-.653.516-1.213.516h-1.225v-5.414h1.225c.56 0 .934.175 1.213.514.303.373.35.898.35 2.156-.001 1.261-.048 1.855-.35 2.228zM130.524 35.566c-1.014 0-1.598.187-2.193.84l.451.438.032.031c.094.085.4.301.907.118.057-.028.115-.053.177-.072.002-.002.006-.003.006-.003h.001c.154-.048.333-.069.561-.069.806 0 1.13.291 1.13.957v.303h-1.433c-1.413 0-2.078.793-2.078 1.761 0 .537.176 1.028.502 1.366.362.361.863.535 1.553.535.697 0 1.083-.174 1.49-.582v.01c.013-.028.021-.045.021-.045s-.037.559.57.559h.893v-4.001c0-1.423-.886-2.146-2.59-2.146zm1.073 3.909c0 .373-.057.617-.221.77-.27.257-.537.292-.957.292-.595 0-.875-.279-.875-.7 0-.43.303-.688.853-.688h1.199v.326zM137.946 36.299l-1 3.094-1.036-3.094-.002-.002c-.22-.656-.958-.66-.958-.66h-.861l2.076 5.646-.257.748c-.151.441-.326.546-.757.546h-.129c-.942 0-.935 1.131-.935 1.131v.235h1.308c.502 0 .957-.117 1.307-.469.186-.187.326-.441.455-.779l2.602-7.059h-.906c-.682.001-.905.658-.907.663z"/></g></svg>