<svg xmlns="http://www.w3.org/2000/svg" width="833" height="1024" viewBox="0 0 833 1024"><path fill="#e24843" d="M504.443 170.54c-75.045 17.986-182.16 77.193-214.547 95.715l-.073-.087s-1.74 1.03-4.772 2.872c-3.088 1.784-4.83 2.8-4.83 2.8l.045.115c-31.793 19.523-135.18 85.01-187.003 142.2-61.7 68.083-97.295 204.815-41.99 298.178 55.32 93.378 215.446 142.185 269.27 183.87 53.855 41.685 170.803 116.063 218.537 122.822 45.412 6.44 100.28.87 163.592-34.114l.116.19c1.624-.957 3.147-1.958 4.728-2.93 1.624-.914 3.234-1.784 4.86-2.74l-.117-.19c61.09-38.726 92.333-84.183 108.505-127.115 17-45.108 7.934-183.42-2.74-250.662-10.69-67.256 23.394-231.11-31.925-324.49-55.276-93.363-192.312-127.81-281.658-106.43z"/><path fill="#2a6c50" d="M308.172 303.472S216.984 105.212 2.292 221.9c0 0 115.323 181.332 305.88 81.572z"/><path fill="#2a6c50" d="M296.99 310.115S166.885 134.89 372.367 2.64c0 0 103.647 188.264-75.38 307.475z"/><path fill="#008b74" d="M476.943 172.847C383 190.527 289.737 247.82 272.49 258.785c-17.883 9.848-112.958 64.152-173.586 138.037l63.122-5.86 27.08 57.553s67.618-75.118 78.104-98.832c0 0 42.802 19.784 69.142 23.555l5.83-3.452c9.37-24.904 12.562-71.956 12.562-71.956 25.832 2.205 124.2-21.03 124.2-21.03l-37.45-51.39 35.448-52.563z"/></svg>