<svg xmlns="http://www.w3.org/2000/svg" width="807" height="1024" viewBox="0 0 807 1024"><path fill="#fff100" d="M743.34 358.91c-.2-.427-.356-.833-.554-1.27l-.052.02C598.424 39.98 385.45 56.373 356.117 55.517c-29.385-.855-64.078-13.43-96.998-33.848C226.187 1.26 190.65-1.534 175.3 5.38s-36.81 35.393-43.337 73.58-20.084 72.492-38.916 95.08c-18.78 22.523-172.16 171.2-29.813 489.778l-.042.02c.188.44.386.825.594 1.252.188.438.344.845.542 1.283l.052-.02C208.7 984.032 421.685 967.65 450.997 968.504c29.396.855 64.078 13.43 97.01 33.838 32.93 20.417 68.467 23.202 83.817 16.288s36.8-35.38 43.327-73.566c6.53-38.197 20.085-72.493 38.917-95.08 18.78-22.524 172.16-171.202 29.813-489.78l.052-.02c-.198-.438-.396-.834-.594-1.272z"/><path fill="#ead200" d="M460.904 147.177c0 10.136-8.217 18.353-18.353 18.353s-18.352-8.217-18.352-18.353c0-10.136 8.217-18.353 18.353-18.353s18.354 8.217 18.354 18.353zM418.84 202.725c0 16.016-12.984 29-29 29s-29-12.984-29-29 12.984-29 29-29 29 12.984 29 29zM487.557 250.88c0 9.756-7.91 17.665-17.665 17.665s-17.665-7.91-17.665-17.665c0-9.756 7.91-17.665 17.665-17.665s17.665 7.91 17.665 17.665z"/></svg>