<svg xmlns="http://www.w3.org/2000/svg" width="650" height="1024" viewBox="0 0 650 1024"><path fill="#ead200" d="M641.278 690.122C611.32 542.658 477.9 429.857 465.418 411.462c-38.264-56.357-73.388-131.27-108.812-177.898-46.82-61.656-100.814-52.21-138.078-44.548l-9.278-45.687c21.82 4.765 83.93 14.52 131.503-15.238 58.676-36.718 72.98-119.654 72.98-119.654s-80.826-23.413-139.51 13.29c-42.122 26.354-61.316 76.4-68.815 102.615l-17-83.668-14.613 2.972 30.127 148.34c-37.295 7.485-90.69 19.85-109.76 94.887-14.413 56.75-17.53 139.433-30.774 206.255-4.335 21.796-83.16 177.728-53.202 325.177 21.458 105.68 117.806 219.767 263.022 202.937 40.32-4.666 72.11-9.37 103.563-15.76s62.557-14.467 101.508-25.893c140.265-41.15 184.46-183.803 163-289.468zM113.24 857.026c-6.528 1.324-12.895-2.895-14.227-9.432-1.324-6.53 2.895-12.896 9.424-14.22 6.537-1.333 12.904 2.886 14.228 9.423 1.324 6.53-2.895 12.896-9.424 14.228zm6.614-83.22c-12.51 2.178-24.414-6.2-26.593-18.71-2.085-12.02 5.568-23.567 17.44-26.33 12.465-2.395 24.514 5.79 26.893 18.254 2.348 12.257-5.536 24.153-17.74 26.786zm66.868 26.077c-7.7 1.563-15.22-3.41-16.792-11.118-1.563-7.707 3.41-15.22 11.118-16.792 7.7-1.563 15.22 3.41 16.784 11.11 1.57 7.715-3.403 15.23-11.11 16.8z"/><path fill="#ead200" d="M138.263 751.285c0 12.693-10.29 22.982-22.982 22.982s-22.98-10.29-22.98-22.982c0-12.693 10.29-22.982 22.98-22.982s22.983 10.29 22.983 22.982z"/><path fill="#d7ad00" d="M138.263 751.285c0 12.693-10.29 22.982-22.982 22.982s-22.98-10.29-22.98-22.982c0-12.693 10.29-22.982 22.98-22.982s22.983 10.29 22.983 22.982z"/><path fill="#ead200" d="M198.125 785.924c0 7.862-6.374 14.236-14.236 14.236s-14.237-6.374-14.237-14.236c0-7.862 6.374-14.236 14.236-14.236s14.235 6.374 14.235 14.236z"/><path fill="#d7ad00" d="M198.125 785.924c0 7.862-6.374 14.236-14.236 14.236s-14.237-6.374-14.237-14.236c0-7.862 6.374-14.236 14.236-14.236s14.235 6.374 14.235 14.236z"/><path fill="#ead200" d="M122.903 845.193c0 6.663-5.402 12.065-12.065 12.065s-12.065-5.402-12.065-12.065c0-6.663 5.402-12.065 12.065-12.065s12.065 5.402 12.065 12.065z"/><path fill="#d7ad00" d="M122.903 845.193c0 6.663-5.402 12.065-12.065 12.065s-12.065-5.402-12.065-12.065c0-6.663 5.402-12.065 12.065-12.065s12.065 5.402 12.065 12.065z"/></svg>